<svg width="75" height="72" viewBox="0 0 75 72" fill="none" xmlns="http://www.w3.org/2000/svg">
<path d="M61.1468 24.5437L38.3651 9.20134C38.2262 9.12439 38.0717 9.04744 37.9173 9.00127C37.7783 8.95513 37.6084 8.93974 37.4231 8.93974C37.2377 8.93974 37.0833 8.95513 36.9288 9.00127C36.7744 9.04744 36.6199 9.12439 36.4809 9.20134L13.6993 24.5437C13.4521 24.713 13.2668 24.9284 13.1433 25.1747C13.0197 25.3901 12.9579 25.6671 12.9579 25.9749V57.3367C12.9579 57.8137 13.1433 58.2448 13.4676 58.5523C13.7765 58.8601 14.2089 59.0602 14.6878 59.0602H60.1583C60.6371 59.0602 61.0697 58.8601 61.394 58.5523C61.703 58.2448 61.8884 57.8137 61.8884 57.3367V25.9749C61.8884 25.6671 61.8266 25.3901 61.703 25.1747C61.5794 24.9284 61.394 24.713 61.1468 24.5437ZM41.1146 5.10798L63.9734 20.4965C64.8536 21.1121 65.5796 21.9277 66.0893 22.8971C66.5681 23.8205 66.8462 24.8823 66.8462 25.9749V57.3367C66.8462 59.1679 66.1049 60.8452 64.8845 62.0458C63.68 63.2461 62.0117 64 60.1583 64H14.6878C12.8343 64 11.1663 63.2461 9.96154 62.0458C8.74137 60.8452 8 59.1679 8 57.3367V25.9749C8 24.8823 8.27801 23.8205 8.77226 22.8971C9.2665 21.9277 9.99243 21.1121 10.8728 20.4965C18.5336 15.4183 26.1018 10.1708 33.7626 5.09259C34.3032 4.73865 34.8901 4.46166 35.5079 4.27699C36.1257 4.09233 36.7744 4 37.4231 4C38.0717 4 38.7206 4.09233 39.3383 4.27699C39.956 4.46166 40.5584 4.73865 41.0837 5.09259L41.1146 5.10798Z" fill="white"/>
<path d="M45.7388 53.4901H49.4612V48.1195H49.631L53.168 53.4901H57.5699L52.8743 46.8886L57.5234 40.8871H53.1215L49.631 45.796H49.4612V40.8871H45.7388V53.4901Z" fill="white"/>
<path d="M37.1082 50.7043C35.1158 50.7043 33.7412 49.3192 33.7412 47.1802C33.7412 45.0721 35.1158 43.6717 37.1082 43.6717C39.116 43.6717 40.4753 45.0721 40.4753 47.1802C40.4753 49.3192 39.116 50.7043 37.1082 50.7043ZM37.1082 53.7511C41.3402 53.7511 44.1977 51.1966 44.1977 47.1802C44.1977 43.1791 41.3402 40.6402 37.1082 40.6402C32.8762 40.6402 30.0034 43.1791 30.0034 47.1802C30.0034 51.1966 32.8762 53.7511 37.1082 53.7511Z" fill="white"/>
<path d="M21.2147 53.4886H24.9525V43.9324H28.9064V40.8856H17.2607V43.9324H21.2147V53.4886Z" fill="white"/>
<path d="M34.0975 37.3771C37.6344 37.3771 39.9359 35.7613 39.9359 33.253C39.9359 30.2061 37.0321 29.7598 34.8697 29.4367C33.4024 29.2212 32.1514 29.0673 32.1514 28.1133C32.1514 27.4054 32.8619 26.913 34.0357 26.913C35.3177 26.913 36.1362 27.5593 36.1362 28.6672H39.5189C39.5189 26.0512 37.2792 24.2661 33.9121 24.2661C30.576 24.2661 28.4291 25.8819 28.4291 28.3749C28.4291 31.6218 31.7035 31.8834 33.8812 32.1758C35.1786 32.3605 36.2135 32.5759 36.2135 33.4839C36.2135 34.2532 35.4412 34.6996 34.2365 34.6996C32.7228 34.6996 31.8425 34.0072 31.827 32.9607H28.3364C28.3364 35.5612 30.6378 37.3771 34.0975 37.3771Z" fill="white"/>
<path d="M21.2188 37.1146H24.9565V24.5115H21.2188V37.1146Z" fill="white"/>
</svg>
