<svg width="62" height="66" viewBox="0 0 62 66" fill="none" xmlns="http://www.w3.org/2000/svg">
<g clip-path="url(#clip0_1336_44)">
<path d="M53.1468 25.7885L30.3651 10.4461C30.2262 10.3692 30.0717 10.2922 29.9173 10.2461C29.7783 10.1999 29.6084 10.1845 29.4231 10.1845C29.2377 10.1845 29.0833 10.1999 28.9288 10.2461C28.7744 10.2922 28.6199 10.3692 28.4809 10.4461L5.69928 25.7885C5.45214 25.9578 5.2668 26.1732 5.14326 26.4195C5.01969 26.6349 4.95789 26.9119 4.95789 27.2196V58.5815C4.95789 59.0585 5.14326 59.4896 5.46759 59.7971C5.7765 60.1049 6.20895 60.305 6.68778 60.305H52.1583C52.6371 60.305 53.0697 60.1049 53.394 59.7971C53.703 59.4896 53.8884 59.0585 53.8884 58.5815V27.2196C53.8884 26.9119 53.8266 26.6349 53.703 26.4195C53.5794 26.1732 53.394 25.9578 53.1468 25.7885ZM33.1146 6.35277L55.9734 21.7413C56.8536 22.3569 57.5796 23.1725 58.0893 24.1419C58.5681 25.0653 58.8462 26.1271 58.8462 27.2196V58.5815C58.8462 60.4127 58.1049 62.09 56.8845 63.2906C55.68 64.4909 54.0117 65.2448 52.1583 65.2448H6.68778C4.83435 65.2448 3.16626 64.4909 1.96154 63.2906C0.741369 62.09 0 60.4127 0 58.5815V27.2196C0 26.1271 0.278013 25.0653 0.77226 24.1419C1.2665 23.1725 1.99243 22.3569 2.87281 21.7413C10.5336 16.6631 18.1018 11.4156 25.7626 6.33738C26.3032 5.98345 26.8901 5.70645 27.5079 5.52179C28.1257 5.33713 28.7744 5.2448 29.4231 5.2448C30.0717 5.2448 30.7206 5.33713 31.3383 5.52179C31.956 5.70645 32.5584 5.98345 33.0837 6.33738L33.1146 6.35277Z" fill="#1544C0"/>
<path d="M37.7388 54.7349H41.4612V49.3643H41.631L45.168 54.7349H49.5699L44.8743 48.1334L49.5234 42.1319H45.1215L41.631 47.0408H41.4612V42.1319H37.7388V54.7349Z" fill="#1544C0"/>
<path d="M29.1082 51.9491C27.1158 51.9491 25.7412 50.564 25.7412 48.425C25.7412 46.3169 27.1158 44.9165 29.1082 44.9165C31.116 44.9165 32.4753 46.3169 32.4753 48.425C32.4753 50.564 31.116 51.9491 29.1082 51.9491ZM29.1082 54.9959C33.3402 54.9959 36.1977 52.4414 36.1977 48.425C36.1977 44.4239 33.3402 41.885 29.1082 41.885C24.8762 41.885 22.0034 44.4239 22.0034 48.425C22.0034 52.4414 24.8762 54.9959 29.1082 54.9959Z" fill="#1544C0"/>
<path d="M13.2147 54.7334H16.9525V45.1772H20.9064V42.1304H9.26074V45.1772H13.2147V54.7334Z" fill="#1544C0"/>
<path d="M26.0975 38.6219C29.6344 38.6219 31.9359 37.0061 31.9359 34.4978C31.9359 31.4509 29.0321 31.0046 26.8697 30.6815C25.4024 30.466 24.1514 30.3121 24.1514 29.3581C24.1514 28.6502 24.8619 28.1577 26.0357 28.1577C27.3177 28.1577 28.1362 28.8041 28.1362 29.912H31.5189C31.5189 27.296 29.2792 25.5109 25.9121 25.5109C22.576 25.5109 20.4291 27.1267 20.4291 29.6197C20.4291 32.8666 23.7035 33.1282 25.8812 33.4206C27.1786 33.6053 28.2135 33.8207 28.2135 34.7286C28.2135 35.498 27.4412 35.9444 26.2365 35.9444C24.7228 35.9444 23.8425 35.252 23.827 34.2055H20.3364C20.3364 36.806 22.6378 38.6219 26.0975 38.6219Z" fill="#1544C0"/>
<path d="M13.2188 38.3594H16.9565V25.7563H13.2188V38.3594Z" fill="#1544C0"/>
</g>
<defs>
<clipPath id="clip0_1336_44">
<rect width="61.0672" height="65.2448" fill="white"/>
</clipPath>
</defs>
</svg>
